<?xml version="1.0" standalone="no"?>
<!DOCTYPE svg PUBLIC "-//W3C//DTD SVG 20010904//EN"
 "http://www.w3.org/TR/2001/REC-SVG-20010904/DTD/svg10.dtd">
 
<svg version="1.0" xmlns="http://www.w3.org/2000/svg"
 width="284.000000pt" height="472.000000pt" viewBox="0 0 284.000000 472.000000"
 preserveAspectRatio="xMidYMid meet">

<g transform="translate(0.000000,472.000000) scale(0.100000,-0.100000)"
fill="#000000" stroke="none">
<path d="M2012 4420 c-48 -34 -80 -86 -128 -206 -121 -300 -275 -832 -370
-1279 -36 -169 -61 -209 -143 -226 -75 -15 -152 -6 -206 26 -83 48 -101 136
-41 202 35 40 37 63 6 63 -27 0 -88 -73 -96 -115 -24 -129 102 -246 267 -248
52 0 57 -2 47 -16 -42 -54 -175 -204 -220 -248 l-53 -51 -215 24 c-337 40
-432 36 -518 -20 -67 -43 -91 -139 -53 -221 78 -172 283 -220 498 -116 85 41
218 136 299 213 l51 48 73 -10 c92 -13 160 -30 160 -40 0 -5 -16 -104 -35
-222 -132 -816 -177 -1433 -119 -1628 19 -64 30 -80 55 -80 32 0 40 32 23 91
-24 80 -14 453 20 745 34 292 137 1007 152 1052 3 10 15 7 51 -12 41 -23 49
-25 61 -12 19 19 11 30 -48 63 -28 15 -50 33 -50 39 0 27 82 450 88 456 4 4
48 28 97 53 232 119 534 362 692 558 l30 38 -28 -118 c-90 -374 -152 -798
-214 -1468 -63 -677 -121 -1058 -185 -1202 -36 -81 -69 -46 -125 132 -39 124
-98 378 -115 503 -13 85 -33 118 -66 105 -31 -12 -32 -39 -4 -198 31 -179 46
-241 97 -400 56 -173 90 -229 156 -254 65 -25 122 37 166 181 66 217 109 501
176 1178 61 600 106 928 181 1310 41 212 64 298 110 408 38 91 41 138 11 156
-22 13 -31 3 -116 -129 -116 -181 -276 -349 -517 -541 -104 -83 -293 -208
-301 -200 -2 2 22 40 52 85 251 363 455 800 521 1111 26 122 26 331 0 383 -35
71 -106 86 -174 37z m98 -55 c19 -23 24 -142 10 -236 -28 -198 -91 -379 -220
-644 -89 -183 -252 -465 -258 -447 -8 25 195 781 278 1032 58 179 92 251 131
285 35 29 42 30 59 10z m-701 -1950 c-15 -82 -28 -151 -29 -153 0 -2 -4 0 -10
3 -5 3 -46 14 -91 24 l-82 17 74 80 c41 43 94 103 118 132 24 29 45 51 46 50
1 -2 -10 -70 -26 -153z m-601 -135 c107 -10 196 -20 198 -22 6 -6 -164 -142
-219 -174 -88 -52 -145 -69 -227 -69 -96 1 -148 26 -191 92 -38 61 -39 114 -3
148 53 49 147 54 442 25z"/>
<path d="M1836 2694 c-3 -9 -6 -46 -6 -83 0 -37 -9 -148 -20 -247 -23 -209
-26 -332 -7 -358 15 -20 58 -14 79 11 10 13 8 18 -11 34 l-22 18 11 148 c24
327 31 455 25 474 -8 23 -40 25 -49 3z"/>
</g>
</svg>
