<?xml version="1.0" encoding="UTF-8" standalone="no"?>
<!DOCTYPE svg PUBLIC "-//W3C//DTD SVG 20010904//EN"
              "http://www.w3.org/TR/2001/REC-SVG-20010904/DTD/svg10.dtd">

<svg xmlns="http://www.w3.org/2000/svg"
     width="500" height="500"
     viewBox="-250 -250 500 500">
  <path id="Imported Path"
        fill="none" stroke="black" stroke-width="1"
        d="M 371.74,287.64
           C 371.74,287.64 310.89,287.64 310.89,287.64
             310.89,287.64 310.89,260.17 310.89,260.17
             310.89,260.17 371.74,187.83 371.74,187.83
             371.74,187.83 400.86,187.83 400.86,187.83
             400.86,187.83 400.86,261.73 400.86,261.73
             400.86,261.73 416.00,261.73 416.00,261.73
             416.00,261.73 416.00,287.64 416.00,287.64
             416.00,287.64 400.86,287.64 400.86,287.64
             400.86,287.64 400.86,310.12 400.86,310.12
             400.86,310.12 371.74,310.12 371.74,310.12
             371.74,310.12 371.74,287.64 371.74,287.64 Z
           M 372.50,262.00
           C 372.50,262.00 371.74,223.89 371.74,223.89
             371.74,223.89 339.59,261.73 339.59,261.73
             339.59,261.73 372.50,262.00 372.50,262.00 Z
           M 202.30,249.51
           C 202.30,226.65 206.41,210.65 214.64,201.51
             222.87,192.37 235.40,187.80 252.25,187.81
             260.34,187.81 266.98,188.81 272.18,190.81
             276.95,192.52 281.27,195.20 284.89,198.60
             287.96,201.53 290.58,204.93 292.64,208.67
             294.65,212.50 296.19,216.64 297.19,220.98
             299.39,229.75 300.55,239.05 300.55,248.62
             300.55,248.76 300.55,248.89 300.55,249.03
             300.55,270.84 296.86,286.81 289.48,296.92
             282.10,307.03 269.39,312.09 251.35,312.10
             241.23,312.10 233.05,310.49 226.82,307.26
             220.53,303.98 215.24,299.07 211.49,293.08
             208.59,288.65 206.33,282.59 204.72,274.90
             203.13,267.08 202.30,258.87 202.30,250.47
             202.30,250.15 202.30,249.83 202.30,249.51
             202.30,249.51 202.30,249.51 202.30,249.51 Z
           M 235.52,249.51
           C 235.52,264.84 236.87,275.30 239.57,280.88
             242.27,286.46 246.19,289.26 251.34,289.29
             251.39,289.29 251.43,289.29 251.48,289.29
             254.86,289.29 257.93,287.93 260.16,285.72
             262.65,283.34 264.49,279.58 265.66,274.44
             266.83,269.30 267.42,261.30 267.42,250.44
             267.42,234.48 266.07,223.75 263.36,218.25
             260.65,212.75 256.59,210.00 251.18,210.01
             245.66,210.01 241.66,212.81 239.18,218.42
             236.70,224.03 235.45,234.42 235.44,249.59
             235.44,249.59 235.52,249.51 235.52,249.51 Z
           M 147.68,287.64
           C 147.68,287.64 86.83,287.64 86.83,287.64
             86.83,287.64 86.83,260.17 86.83,260.17
             86.83,260.17 147.68,187.83 147.68,187.83
             147.68,187.83 176.80,187.83 176.80,187.83
             176.80,187.83 176.80,261.73 176.80,261.73
             176.80,261.73 191.89,261.73 191.89,261.73
             191.89,261.73 191.89,287.64 191.89,287.64
             191.89,287.64 176.80,287.64 176.80,287.64
             176.80,287.64 176.80,310.12 176.80,310.12
             176.80,310.12 147.68,310.12 147.68,310.12
             147.68,310.12 147.68,287.64 147.68,287.64 Z
           M 148.25,262.25
           C 148.25,262.25 147.68,223.89 147.68,223.89
             147.68,223.89 115.52,261.73 115.52,261.73
             115.52,261.73 148.25,262.25 148.25,262.25 Z" />
</svg>
